<svg xmlns="http://www.w3.org/2000/svg" width="1024" height="1024" viewBox="0 0 128 128">
  <defs>
    <linearGradient id="gB" x1="0" y1="0" x2="1" y2="1">
      <stop offset="0" stop-color="#3b6cf6"/>
      <stop offset="1" stop-color="#1e3aa8"/>
    </linearGradient>
  </defs>
  <rect width="128" height="128" rx="28" fill="url(#gB)"/>
  <g fill="none" stroke="#ffffff" stroke-width="7.5" stroke-linecap="round" stroke-linejoin="round">
    <!-- left brace -->
    <path d="M44 34 C33 34 34 47 34 55 C34 61 27 64 27 64 C27 64 34 67 34 73 C34 81 33 94 44 94"/>
    <!-- right brace -->
    <path d="M84 34 C95 34 94 47 94 55 C94 61 101 64 101 64 C101 64 94 67 94 73 C94 81 95 94 84 94"/>
  </g>
  <!-- serif t (translate) -->
  <text x="64" y="82" text-anchor="middle" font-family="Georgia, 'Times New Roman', serif" font-size="52" font-weight="700" fill="#ffffff">t</text>
</svg>
